<mxfile host="app.diagrams.net" modified="2023-07-03T02:56:28.018Z" agent="Mozilla/5.0 (Macintosh; Intel Mac OS X 10_15_7) AppleWebKit/537.36 (KHTML, like Gecko) Chrome/114.0.0.0 Safari/537.36" version="21.5.1" etag="RJbWs85y1XMjyOWTtVdv" type="github">
  <diagram name="第 1 页" id="NmtdZx9vtx5GmO8Dfkk5">
    <mxGraphModel>
      <root>
        <mxCell id="0" />
        <mxCell id="1" parent="0" />
      </root>
    </mxGraphModel>
  </diagram>
</mxfile>
